<?xml version="1.0" encoding="UTF-8"?>
<!DOCTYPE svg PUBLIC "-//W3C//DTD SVG 1.1//EN" "http://www.w3.org/Graphics/SVG/1.1/DTD/svg11.dtd">
<!-- Creator: CorelDRAW 2020 (64-Bit) -->
<svg xmlns="http://www.w3.org/2000/svg" xml:space="preserve" width="121.92mm" height="62.2157mm" version="1.1" style="shape-rendering:geometricPrecision; text-rendering:geometricPrecision; image-rendering:optimizeQuality; fill-rule:evenodd; clip-rule:evenodd"
viewBox="0 0 12192 6221.57"
 xmlns:xlink="http://www.w3.org/1999/xlink"
 xmlns:xodm="http://www.corel.com/coreldraw/odm/2003">
 <defs>
  <style type="text/css">
   <![CDATA[
    .fil0 {fill:#0D6EFD}
    .fil1 {fill:white;fill-rule:nonzero}
   ]]>
  </style>
 </defs>
 <g id="Layer_x0020_1">
  <metadata id="CorelCorpID_0Corel-Layer"/>
  <rect class="fil0" y="3.52" width="12192" height="6214.53"/>
  <path class="fil1" d="M8138.71 0c514.77,338.7 940.47,801.77 1234.32,1346.41 283.29,525.06 444.08,1125.95 444.08,1764.37 0,638.42 -160.8,1239.33 -444.09,1764.38 -293.85,544.64 -719.55,1007.71 -1234.32,1346.41l-4.64 -7.04c513.59,-337.93 938.33,-799.95 1231.52,-1343.37 282.63,-523.82 443.05,-1123.36 443.05,-1760.38 0,-637.02 -160.42,-1236.55 -443.04,-1760.37 -293.19,-543.42 -717.93,-1005.44 -1231.52,-1343.37l4.64 -7.04zm-4085.41 6221.57c-514.77,-338.7 -940.47,-801.77 -1234.32,-1346.41 -283.29,-525.05 -444.09,-1125.96 -444.09,-1764.38 0,-638.42 160.79,-1239.31 444.08,-1764.37 293.85,-544.64 719.55,-1007.71 1234.32,-1346.41l4.64 7.04c-513.59,337.93 -938.33,799.95 -1231.52,1343.37 -282.62,523.82 -443.04,1123.35 -443.04,1760.37 0,637.02 160.42,1236.56 443.05,1760.38 293.19,543.42 717.93,1005.44 1231.52,1343.37l-4.64 7.04z"/>
  <path class="fil1" d="M6096 694.34c667.26,0 1271.38,270.47 1708.67,707.77 437.3,437.29 707.77,1041.41 707.77,1708.67 0,667.26 -270.47,1271.38 -707.77,1708.67 -437.29,437.3 -1041.41,707.77 -1708.67,707.77 -667.26,0 -1271.38,-270.47 -1708.67,-707.77 -437.3,-437.29 -707.77,-1041.41 -707.77,-1708.67 0,-667.26 270.47,-1271.38 707.77,-1708.67 437.29,-437.3 1041.41,-707.77 1708.67,-707.77zm1702.69 713.75c-435.74,-435.75 -1037.74,-705.27 -1702.69,-705.27 -664.95,0 -1266.95,269.52 -1702.69,705.27 -435.75,435.74 -705.27,1037.74 -705.27,1702.69 0,664.95 269.52,1266.95 705.27,1702.69 435.74,435.75 1037.74,705.27 1702.69,705.27 664.95,0 1266.95,-269.52 1702.69,-705.27 435.75,-435.74 705.27,-1037.74 705.27,-1702.69 0,-664.95 -269.52,-1266.95 -705.27,-1702.69z"/>
 </g>
</svg>
